<?:anonymous?>
<!-- Generator: Blender, SVG Export for Grease Pencil - v2.0 -->
<?xml?>
<svg version="1.0" x="0px" y="0px" xmlns="http://www.w3.org/2000/svg" width="0.000000px" height="0.000000px" viewBox="0 0 0.000000 0.000000">
	<g id="blender_frame_1">
		<g id="blender_object_NurbsCircle">
			<!--Layer: -->
			<g id="">
				<path d="M722.641907,-171.921066L722.691467,-172.125214L722.700134,-172.335098L722.667786,-172.542648L722.595459,-172.739868L722.486084,-172.919235L722.343872,-173.073822L722.174194,-173.197662L721.983643,-173.286041L721.779480,-173.335541L721.569641,-173.344254L721.362061,-173.311859L721.164795,-173.239594L720.985474,-173.130234L720.830872,-172.988007L720.707031,-172.818329L720.618652,-172.627762L700.088989,-116.108742L700.029419,-115.799095L700.061523,-115.485405L713.805176,-56.168816L713.925720,-55.877350L714.124329,-55.632313L758.737549,-12.813548L758.992981,-12.637056L759.287537,-12.538572L820.564514,-0.889785L820.872742,-0.876829L821.172607,-0.949379L878.634460,-24.570534L878.905701,-24.725456L879.122437,-24.950178L913.749329,-75.575844L913.895386,-75.856377L913.955017,-76.167038L915.145874,-136.723938L915.114075,-137.035553L914.994202,-137.324921L883.431152,-188.531754L883.240051,-188.767624L882.990295,-188.940277L829.176086,-215.453613L828.895142,-215.547440L828.599121,-215.560028L768.997009,-209.778290L768.707458,-209.708099L768.448730,-209.560333L720.973816,-173.121338L720.821167,-172.976990L720.699646,-172.805664L720.613953,-172.613892L720.567261,-172.409073L720.561401,-172.199097L720.596558,-171.992020L720.671570,-171.795761L720.783325,-171.617935L720.927673,-171.465317L721.098999,-171.343781L721.290771,-171.258026L721.495605,-171.211304L721.705627,-171.205475L721.912659,-171.240707L722.108948,-171.315674L722.286804,-171.427444L769.509399,-207.690613L828.501953,-213.415344L881.757446,-187.167465L912.975403,-136.496033L911.787415,-76.589882L877.522888,-26.502779L820.652222,-3.126643L760.001831,-14.655279L715.850769,-57.022682L702.242493,-115.701607z" fill="#CBCBCB" stroke="none" fill-opacity="1" />
				<path d="M722.107971,-173.233612L721.911682,-173.308380L721.704590,-173.343399L721.494629,-173.337357L721.289856,-173.290436L721.098145,-173.204514L720.926941,-173.082809L720.782715,-172.930069L720.671082,-172.752106L720.596375,-172.555786L720.561279,-172.348679L720.567383,-172.138718L720.614197,-171.933945L720.700195,-171.742264L720.821838,-171.571030L720.974609,-171.426834L721.152588,-171.315216L912.377075,-75.237717L912.577209,-75.161491L912.788269,-75.125801L913.002319,-75.131966L913.210938,-75.179764L913.406250,-75.267357L913.580750,-75.391373L913.727783,-75.547050L913.841492,-75.728401L913.917786,-75.928474L913.953430,-76.139557L913.947266,-76.353546L913.899536,-76.562271L913.811890,-76.757584L913.687866,-76.932106L913.532166,-77.079071L913.350891,-77.192856z" fill="#CBCBCB" stroke="none" fill-opacity="1" />
				<path d="M722.550232,-172.823853L722.425415,-172.992783L722.270020,-173.134094L722.089966,-173.242371L721.892273,-173.313431L721.684570,-173.344604L721.474731,-173.334625L721.270874,-173.283890L721.080872,-173.194397L720.911926,-173.069550L720.770569,-172.914108L720.662354,-172.734085L720.591248,-172.536423L720.560120,-172.328659L720.570068,-172.118851L720.620789,-171.915024L720.710266,-171.724976L819.813416,-1.411395L819.952393,-1.226045L820.126831,-1.073595L820.328979,-0.960784L820.550293,-0.892471L820.781067,-0.871650L821.011047,-0.899286L821.230164,-0.974104L821.429077,-1.092864L821.598877,-1.250353L821.732239,-1.439748L821.823364,-1.652712L821.868164,-1.879970L821.864685,-2.111551L821.813293,-2.337397L821.715881,-2.547579z" fill="#CBCBCB" stroke="none" fill-opacity="1" />
				<path d="M722.700867,-172.227081L722.689453,-172.436813L722.637451,-172.640350L722.546692,-172.829803L722.420715,-172.997910L722.264404,-173.138214L722.083679,-173.245316L721.885559,-173.315125L721.677612,-173.344925L721.467834,-173.333603L721.264343,-173.281555L721.074890,-173.190811L720.906799,-173.064850L720.766479,-172.908524L720.659363,-172.727798L720.589539,-172.529694L720.559753,-172.321747L713.772705,-56.486328L713.784302,-56.271717L713.837524,-56.063515L713.930359,-55.869701L714.059204,-55.697704L714.219177,-55.554146L714.404053,-55.444576L714.606750,-55.373158L714.819458,-55.342678L715.034058,-55.354275L715.242310,-55.407513L715.436096,-55.500351L715.608154,-55.629219L715.751648,-55.789169L715.861267,-55.974060L715.932678,-56.176765L715.963135,-56.389503z" fill="#CBCBCB" stroke="none" fill-opacity="1" />
				<path d="M701.006714,-116.829941L700.798340,-116.788643L700.601990,-116.707542L700.425293,-116.589661L700.274902,-116.439575L700.156738,-116.263039L700.075317,-116.066841L700.033691,-115.858513L700.033508,-115.646103L700.074768,-115.437714L700.155884,-115.241371L700.273743,-115.064659L700.423889,-114.914299L700.600403,-114.796135L700.796570,-114.714684L701.004883,-114.673065L701.217346,-114.672882L914.172668,-135.697556L914.380127,-135.738647L914.575623,-135.819443L914.751648,-135.936829L914.901367,-136.086273L915.019104,-136.262070L915.100220,-136.457474L915.141602,-136.664917L915.141785,-136.876450L915.100647,-137.084000L915.019958,-137.279495L914.902527,-137.455490L914.753052,-137.605225L914.577271,-137.722900L914.381836,-137.804016L914.174438,-137.845474L913.962891,-137.845627z" fill="#CBCBCB" stroke="none" fill-opacity="1" />
				<path d="M701.595154,-116.721397L701.396606,-116.797005L701.187134,-116.832443L700.974792,-116.826324L700.767700,-116.778908L700.573914,-116.691986L700.400696,-116.568924L700.254883,-116.414452L700.142029,-116.234497L700.066406,-116.035973L700.031006,-115.826523L700.037109,-115.614189L700.084534,-115.407097L700.171448,-115.213264L700.294495,-115.040115L700.448975,-114.894295L700.628967,-114.781395L877.736694,-24.608709L877.938721,-24.531740L878.151978,-24.495684L878.368103,-24.501900L878.578796,-24.550205L878.776123,-24.638655L878.952332,-24.763897L879.100708,-24.921120L879.215698,-25.104288L879.292603,-25.306318L879.328613,-25.519495L879.322388,-25.735626L879.274170,-25.946386L879.185730,-26.143646L879.060425,-26.319891L878.903259,-26.468307L878.720032,-26.583183z" fill="#CBCBCB" stroke="none" fill-opacity="1" />
				<path d="M702.042358,-116.307037L701.916138,-116.477852L701.758972,-116.620773L701.576904,-116.730270L701.377014,-116.802155L701.166870,-116.833664L700.954712,-116.823586L700.748596,-116.772285L700.556396,-116.681755L700.385559,-116.555489L700.242676,-116.398315L700.133179,-116.216286L700.061279,-116.016365L700.029785,-115.806297L700.039856,-115.594116L700.091187,-115.387970L700.181702,-115.195770L758.538208,-13.059059L758.666992,-12.884793L758.827393,-12.738997L759.013062,-12.627277L759.216980,-12.553946L759.431274,-12.521807L759.647766,-12.532110L759.858093,-12.584439L760.054138,-12.676783L760.228394,-12.805577L760.374146,-12.965935L760.485840,-13.151627L760.559204,-13.355582L760.591370,-13.569852L760.581055,-13.786325L760.528748,-13.996636L760.436340,-14.192685z" fill="#CBCBCB" stroke="none" fill-opacity="1" />
				<path d="M714.196289,-57.304409L714.040161,-57.156731L713.915771,-56.981426L713.828064,-56.785240L713.780273,-56.575699L713.774292,-56.360882L713.810364,-56.148991L713.887085,-55.948223L714.001465,-55.766285L714.149109,-55.610153L714.324341,-55.485809L714.520569,-55.398087L714.730164,-55.350296L714.945007,-55.344315L715.156799,-55.380348L715.357605,-55.457050L715.539551,-55.571411L883.168457,-187.139755L883.320557,-187.283661L883.441772,-187.454468L883.527222,-187.645599L883.573853,-187.849777L883.579590,-188.059113L883.544556,-188.265564L883.469727,-188.461197L883.358398,-188.638474L883.214417,-188.790588L883.043701,-188.911774L882.852478,-188.997238L882.648254,-189.043793L882.438965,-189.049622L882.232483,-189.014496L882.036926,-188.939774L881.859680,-188.828354z" fill="#CBCBCB" stroke="none" fill-opacity="1" />
				<path d="M714.761414,-57.529045L714.550598,-57.487289L714.351929,-57.405216L714.173096,-57.285976L714.021057,-57.134113L713.901489,-56.955524L713.819092,-56.757027L713.776978,-56.546288L713.776794,-56.331387L713.818542,-56.120552L713.900635,-55.921936L714.019897,-55.743141L714.171692,-55.591034L714.350342,-55.471474L714.548767,-55.389080L714.759583,-55.346970L714.974487,-55.346786L912.970093,-75.128357L913.180115,-75.169937L913.377991,-75.251694L913.556091,-75.370476L913.707642,-75.521729L913.826660,-75.699631L913.908813,-75.897369L913.950684,-76.107323L913.950867,-76.321396L913.909302,-76.531418L913.827515,-76.729279L913.708740,-76.907372L913.557495,-77.058884L913.379578,-77.177971L913.181824,-77.260063L912.971985,-77.302017L912.757874,-77.302177z" fill="#CBCBCB" stroke="none" fill-opacity="1" />
				<path d="M715.356689,-57.419254L715.155823,-57.495750L714.943909,-57.531570L714.729065,-57.525410L714.519592,-57.477425L714.323486,-57.389488L714.148315,-57.265007L714.000793,-57.108715L713.886597,-56.926647L713.810059,-56.725826L713.774231,-56.513912L713.780457,-56.299088L713.828430,-56.089588L713.916382,-55.893486L714.040894,-55.718300L714.197144,-55.570770L714.379150,-55.456570L820.270752,-0.987713L820.473755,-0.910413L820.687866,-0.874207L820.904968,-0.880445L821.116638,-0.928954L821.314880,-1.017820L821.491943,-1.143630L821.641052,-1.301580L821.756470,-1.485550L821.833801,-1.688554L821.869995,-1.902684L821.863770,-2.119800L821.815247,-2.331533L821.726379,-2.529680L821.600586,-2.706738L821.442627,-2.855839L821.258667,-2.971250z" fill="#CBCBCB" stroke="none" fill-opacity="1" />
				<path d="M758.443665,-13.990388L758.392639,-13.779778L758.383606,-13.563272L758.416992,-13.349131L758.491577,-13.145646L758.604370,-12.960617L758.751160,-12.801147L758.926147,-12.673412L759.122803,-12.582224L759.333374,-12.531157L759.549866,-12.522182L759.763977,-12.555594L759.967468,-12.630145L760.152527,-12.742967L760.311951,-12.889714L760.439758,-13.064729L760.530884,-13.261356L829.705566,-214.152115L829.754578,-214.354538L829.763306,-214.562683L829.731140,-214.768509L829.659485,-214.964066L829.551086,-215.141907L829.410034,-215.295197L829.241760,-215.417984L829.052795,-215.505630L828.850403,-215.554718L828.642212,-215.563354L828.436462,-215.531219L828.240845,-215.459579L828.063049,-215.351135L827.909729,-215.210083L827.786926,-215.041855L827.699280,-214.852875z" fill="#CBCBCB" stroke="none" fill-opacity="1" />
				<path d="M758.810059,-14.499609L758.652649,-14.350667L758.527222,-14.173898L758.438782,-13.976073L758.390564,-13.764799L758.384583,-13.548186L758.420898,-13.334548L758.498230,-13.132091L758.613586,-12.948624L758.762451,-12.791187L758.939270,-12.665837L759.137085,-12.577324L759.348328,-12.529146L759.564941,-12.523133L759.778625,-12.559500L759.981079,-12.636810L760.164551,-12.752125L914.728882,-135.918655L914.882568,-136.064026L915.004883,-136.236572L915.091309,-136.429688L915.138367,-136.635956L915.144226,-136.847427L915.108826,-137.055984L915.033264,-137.253632L914.920654,-137.432724L914.775269,-137.586395L914.602783,-137.708801L914.409607,-137.795166L914.203369,-137.842194L913.991882,-137.848083L913.783325,-137.812592L913.585693,-137.737122L913.406616,-137.624542z" fill="#CBCBCB" stroke="none" fill-opacity="1" />
				<path d="M759.379883,-14.726096L759.167236,-14.683974L758.966980,-14.601217L758.786743,-14.481003L758.633362,-14.327879L758.512817,-14.147793L758.429749,-13.947657L758.387207,-13.735152L758.387024,-13.518433L758.429138,-13.305842L758.511902,-13.105578L758.632141,-12.925278L758.785278,-12.771929L758.965393,-12.651361L759.165527,-12.568273L759.377991,-12.525808L759.594727,-12.525626L878.335571,-24.498283L878.547729,-24.540257L878.747437,-24.622831L878.927368,-24.742800L879.080383,-24.895559L879.200623,-25.075207L879.283569,-25.274904L879.325928,-25.486917L879.326111,-25.703123L879.284119,-25.915199L879.201477,-26.115025L879.081543,-26.294918L878.928772,-26.447916L878.749146,-26.568193L878.549377,-26.651100L878.337463,-26.693459L878.121277,-26.693640z" fill="#CBCBCB" stroke="none" fill-opacity="1" />
				<path d="M819.690613,-1.707512L819.764343,-1.503225L819.876465,-1.317212L820.022705,-1.156640L820.197510,-1.027717L820.394043,-0.935363L820.604919,-0.883120L820.821899,-0.873009L821.036560,-0.905416L821.240967,-0.979133L821.426941,-1.091259L821.587524,-1.237547L821.716492,-1.412315L821.808838,-1.608899L821.861023,-1.819734L821.871094,-2.036700L821.838684,-2.251451L770.131653,-208.980667L770.060852,-209.176834L769.953186,-209.355392L769.812744,-209.509598L769.644958,-209.633377L769.456177,-209.722031L769.253784,-209.772217L769.045471,-209.781906L768.839294,-209.750763L768.643127,-209.680023L768.464478,-209.572327L768.310364,-209.431915L768.186584,-209.264084L768.097900,-209.075333L768.047729,-208.872940L768.038025,-208.664627L768.069153,-208.458435z" fill="#CBCBCB" stroke="none" fill-opacity="1" />
				<path d="M819.718689,-2.344822L819.667542,-2.133740L819.658508,-1.916743L819.692017,-1.702141L819.766724,-1.498196L819.879761,-1.312750L820.026855,-1.152928L820.202332,-1.024871L820.399353,-0.933523L820.610413,-0.882349L820.827393,-0.873319L821.041992,-0.906807L821.245972,-0.981529L821.431458,-1.094597L821.591187,-1.241666L821.719299,-1.417087L821.810608,-1.614163L883.522522,-187.631821L883.571838,-187.835312L883.580566,-188.044540L883.548218,-188.251450L883.476196,-188.448074L883.367188,-188.626877L883.225403,-188.780945L883.056274,-188.904404L882.866333,-188.992523L882.662842,-189.041870L882.453491,-189.050552L882.246704,-189.018250L882.050049,-188.946198L881.871277,-188.837219L881.717102,-188.695419L881.593628,-188.526260L881.505554,-188.336288z" fill="#CBCBCB" stroke="none" fill-opacity="1" />
				<path d="M820.085938,-2.855176L819.928101,-2.705935L819.802429,-2.528770L819.713806,-2.330496L819.665466,-2.118751L819.659424,-1.901636L819.695923,-1.687505L819.773438,-1.484609L819.888977,-1.300714L820.038208,-1.142935L820.215393,-1.017286L820.413635,-0.928601L820.625488,-0.880306L820.842529,-0.874293L821.056641,-0.910723L821.259583,-0.988216L821.443481,-1.103798L913.533020,-75.352104L913.688538,-75.499229L913.812378,-75.673851L913.899841,-75.869278L913.947388,-76.077995L913.953430,-76.292015L913.917480,-76.503090L913.841125,-76.703072L913.727112,-76.884323L913.580017,-77.039856L913.405396,-77.163719L913.209900,-77.251114L913.001282,-77.298698L912.787231,-77.304657L912.576172,-77.268753L912.376160,-77.192383L912.194946,-77.078430z" fill="#CBCBCB" stroke="none" fill-opacity="1" />
				<path d="M877.480347,-24.785500L877.652832,-24.655132L877.847412,-24.560915L878.056702,-24.506491L878.272522,-24.493929L878.486633,-24.523716L878.690918,-24.594725L878.877319,-24.704176L879.038818,-24.847885L879.169250,-25.020397L879.263428,-25.214970L879.317871,-25.424221L879.330444,-25.640074L879.300659,-25.854216L879.229675,-26.058460L879.120178,-26.244879L878.976379,-26.406382L722.357117,-173.061829L722.189514,-173.188477L722.000427,-173.280014L721.797119,-173.332901L721.587463,-173.345108L721.379395,-173.316177L721.180969,-173.247223L720.999817,-173.140854L720.842834,-173.001190L720.716248,-172.833618L720.624634,-172.644547L720.571777,-172.441254L720.559570,-172.231522L720.588501,-172.023483L720.657532,-171.825043L720.763855,-171.643906L720.903503,-171.486984z" fill="#CBCBCB" stroke="none" fill-opacity="1" />
				<path d="M877.159180,-25.325212L877.232544,-25.121855L877.344177,-24.936687L877.489868,-24.776833L877.663818,-24.648487L877.859497,-24.556583L878.069336,-24.504564L878.285400,-24.494528L878.499084,-24.526787L878.702454,-24.600161L878.887634,-24.711782L879.047485,-24.857386L879.175781,-25.031363L879.267761,-25.227037L879.319763,-25.436911L879.329895,-25.652880L879.297546,-25.866669L829.732483,-214.763351L829.661804,-214.959274L829.554199,-215.137665L829.413879,-215.291641L829.246277,-215.415283L829.057800,-215.503876L828.855591,-215.553970L828.647522,-215.563660L828.441528,-215.532562L828.245667,-215.461868L828.067261,-215.354324L827.913269,-215.214066L827.789673,-215.046432L827.701050,-214.857910L827.650940,-214.655716L827.641296,-214.447662L827.672302,-214.241684z" fill="#CBCBCB" stroke="none" fill-opacity="1" />
				<path d="M877.187195,-25.959642L877.136230,-25.749493L877.127258,-25.533489L877.160645,-25.319862L877.235046,-25.116869L877.347534,-24.932268L877.493958,-24.773174L877.668518,-24.645706L877.864685,-24.554731L878.074829,-24.503782L878.290833,-24.494818L878.504517,-24.528177L878.707458,-24.602514L878.892090,-24.715090L879.051208,-24.861485L879.178711,-25.036135L879.269653,-25.232269L915.086609,-136.415756L915.136414,-136.621353L915.145203,-136.832718L915.112610,-137.041733L915.039795,-137.240356L914.929688,-137.421005L914.786377,-137.576660L914.615540,-137.701385L914.423645,-137.790390L914.218018,-137.840240L914.006653,-137.848999L913.797607,-137.816391L913.598999,-137.743591L913.418335,-137.633484L913.262695,-137.490234L913.138000,-137.319351L913.048950,-137.127441z" fill="#CBCBCB" stroke="none" fill-opacity="1" />
				<path d="M912.666626,-75.141151L912.879883,-75.123306L913.092712,-75.147392L913.296631,-75.212540L913.483948,-75.316193L913.647400,-75.454422L913.780823,-75.621895L913.878906,-75.812157L913.938110,-76.017899L913.955994,-76.231239L913.931885,-76.443977L913.866760,-76.647911L913.763000,-76.835220L913.624817,-76.998711L913.457336,-77.132080L913.267090,-77.230240L913.061340,-77.289391L701.307861,-116.817207L701.096191,-116.834946L700.885071,-116.811020L700.682739,-116.746376L700.496826,-116.643517L700.334656,-116.506371L700.202271,-116.340187L700.104919,-116.151405L700.046204,-115.947250L700.028503,-115.735542L700.052368,-115.524467L700.117004,-115.322113L700.219910,-115.136238L700.357056,-114.974022L700.523193,-114.841675L700.712036,-114.744293L700.916199,-114.685593z" fill="#CBCBCB" stroke="none" fill-opacity="1" />
				<path d="M912.123230,-75.412781L912.294067,-75.283676L912.486755,-75.190392L912.693970,-75.136490L912.907715,-75.124054L913.119751,-75.153534L913.321960,-75.223839L913.506531,-75.332214L913.666504,-75.474556L913.795532,-75.645355L913.888855,-75.838036L913.942749,-76.045235L913.955200,-76.258957L913.925720,-76.470993L913.855408,-76.673225L913.747070,-76.857834L913.604675,-77.017784L769.821899,-209.501251L769.655579,-209.626984L769.467834,-209.717834L769.266052,-209.770355L769.057800,-209.782486L768.851257,-209.753738L768.654297,-209.685272L768.474487,-209.579697L768.318665,-209.441071L768.192932,-209.274689L768.102112,-209.086975L768.049561,-208.885147L768.037415,-208.676971L768.066162,-208.470444L768.134644,-208.273453L768.240234,-208.093597L768.378906,-207.937836z" fill="#CBCBCB" stroke="none" fill-opacity="1" />
				<path d="M911.805237,-75.947197L911.877930,-75.745819L911.988464,-75.562462L912.132629,-75.404198L912.304932,-75.277107L912.498718,-75.186058L912.706543,-75.134583L912.920349,-75.124611L913.132019,-75.156570L913.333496,-75.229218L913.516785,-75.339752L913.675049,-75.483932L913.802185,-75.656204L913.893188,-75.849976L913.944641,-76.057793L913.954529,-76.271645L913.922668,-76.483337L883.549622,-188.246262L883.478516,-188.443237L883.370422,-188.622574L883.229370,-188.777390L883.060913,-188.901718L882.871338,-188.990723L882.668091,-189.041092L882.458923,-189.050858L882.251892,-189.019577L882.054871,-188.948532L881.875549,-188.840408L881.720703,-188.699371L881.596375,-188.530884L881.507324,-188.341339L881.456970,-188.138077L881.447205,-187.928894L881.478516,-187.721848z" fill="#CBCBCB" stroke="none" fill-opacity="1" />
				<path d="M914.465149,-135.768265L914.653259,-135.865067L914.818787,-135.996674L914.955566,-136.158112L915.058228,-136.343094L915.122803,-136.544571L915.146790,-136.754730L915.129333,-136.965576L915.071106,-137.168945L914.974304,-137.357056L914.842590,-137.522644L914.681213,-137.659424L914.496216,-137.762039L914.294800,-137.826614L914.084656,-137.850616L913.873718,-137.833160L913.670410,-137.774933L714.464233,-57.457203L714.273132,-57.358868L714.104919,-57.225140L713.966003,-57.061146L713.861755,-56.873196L713.796143,-56.668568L713.771729,-56.455013L713.789429,-56.240829L713.848633,-56.034233L713.946960,-55.843147L714.080688,-55.674904L714.244690,-55.535976L714.432617,-55.431736L714.637268,-55.366142L714.850830,-55.341736L715.065002,-55.359474L715.271606,-55.418629z" fill="#CBCBCB" stroke="none" fill-opacity="1" />
				<path d="M913.872681,-135.710205L914.083496,-135.692551L914.293762,-135.716370L914.495300,-135.780746L914.680359,-135.883179L914.841919,-136.019775L914.973694,-136.185257L915.070679,-136.373245L915.129150,-136.576553L915.146790,-136.787384L915.122986,-136.997589L915.058594,-137.199097L914.956116,-137.384201L914.819519,-137.545776L914.654114,-137.677567L914.466064,-137.774536L914.262756,-137.832993L721.823975,-173.328354L721.600586,-173.345566L721.378540,-173.315994L721.167480,-173.240875L720.976685,-173.123535L720.814392,-172.969086L720.687744,-172.784256L720.602356,-172.577164L720.561890,-172.356827L720.568115,-172.132889L720.620728,-171.915146L720.717468,-171.713089L720.854126,-171.535583L721.024719,-171.390350L721.221741,-171.283768L721.436584,-171.220474z" fill="#CBCBCB" stroke="none" fill-opacity="1" />
				<path d="M913.335815,-135.978592L913.504578,-135.851044L913.694946,-135.758865L913.899719,-135.705582L914.110901,-135.693314L914.320496,-135.722443L914.520264,-135.791885L914.702698,-135.899017L914.860718,-136.039642L914.988281,-136.208420L915.080444,-136.398834L915.133728,-136.603577L915.146057,-136.814774L915.116943,-137.024307L915.047424,-137.224121L914.940369,-137.406570L914.799683,-137.564606L829.423096,-215.283279L829.256897,-215.408905L829.069458,-215.499664L828.867859,-215.552109L828.659912,-215.564224L828.453613,-215.535522L828.256836,-215.467133L828.077209,-215.361679L827.921631,-215.223190L827.796082,-215.057022L827.705200,-214.869522L827.652771,-214.667923L827.640747,-214.459991L827.669373,-214.253708L827.737732,-214.056931L827.843262,-213.877319L827.981750,-213.721695z" fill="#CBCBCB" stroke="none" fill-opacity="1" />
				<path d="M883.380066,-187.358597L883.485352,-187.539536L883.553528,-187.737610L883.581604,-187.945084L883.568604,-188.154129L883.515198,-188.356598L883.423340,-188.544754L883.296387,-188.711334L883.139526,-188.850021L882.958496,-188.955383L882.760559,-189.023453L882.552979,-189.051544L882.343933,-189.038635L882.141541,-188.985214L881.953369,-188.893295L881.786804,-188.766434L881.648071,-188.609528L758.591125,-14.273153L758.482117,-14.085866L758.411682,-13.880948L758.382568,-13.666176L758.395935,-13.449905L758.451233,-13.240354L758.546387,-13.045631L758.677612,-12.873217L758.840027,-12.729711L759.027283,-12.620645L759.232239,-12.550213L759.446960,-12.521143L759.663269,-12.534495L759.872803,-12.589799L760.067566,-12.684924L760.239929,-12.816212L760.383423,-12.978613z" fill="#CBCBCB" stroke="none" fill-opacity="1" />
				<path d="M882.907349,-186.990891L883.093628,-187.086700L883.257507,-187.216995L883.392883,-187.376785L883.494446,-187.559906L883.558411,-187.759338L883.582153,-187.967361L883.564880,-188.176056L883.507202,-188.377380L883.411438,-188.563599L883.281067,-188.727509L883.121277,-188.862869L882.938171,-188.964447L882.738831,-189.028366L882.530762,-189.052139L882.322021,-189.034851L882.120789,-188.977203L700.713013,-116.758919L700.524109,-116.661705L700.357849,-116.529533L700.220520,-116.367439L700.117493,-116.181664L700.052612,-115.979378L700.028503,-115.768318L700.046021,-115.556602L700.104553,-115.352394L700.201721,-115.163490L700.333923,-114.997208L700.495972,-114.859871L700.681763,-114.756844L700.884033,-114.692017L701.095093,-114.667877L701.306824,-114.685425L701.511047,-114.743881z" fill="#CBCBCB" stroke="none" fill-opacity="1" />
				<path d="M882.320984,-186.933426L882.529724,-186.915955L882.737793,-186.939529L882.937256,-187.003235L883.120422,-187.104645L883.280396,-187.239853L883.410828,-187.403656L883.506836,-187.589752L883.564636,-187.791000L883.582153,-187.999680L883.558594,-188.207748L883.494873,-188.407242L883.393433,-188.590439L883.258301,-188.750381L883.094482,-188.880829L882.908325,-188.976822L882.707031,-189.034698L769.292664,-209.765808L769.084839,-209.783203L768.877625,-209.759735L768.678955,-209.696304L768.496460,-209.595291L768.337219,-209.460678L768.207336,-209.297562L768.111755,-209.112183L768.054138,-208.911774L768.036743,-208.703979L768.060181,-208.496750L768.123657,-208.298096L768.224609,-208.115662L768.359253,-207.956390L768.522400,-207.826477L768.707703,-207.730881L768.908142,-207.673279z" fill="#CBCBCB" stroke="none" fill-opacity="1" />
				<path d="M829.763977,-214.455566L829.752686,-214.663574L829.701111,-214.865356L829.611084,-215.053238L829.486206,-215.219925L829.331177,-215.359055L829.151978,-215.465271L828.955505,-215.534470L828.749329,-215.564011L828.541382,-215.552795L828.339539,-215.501175L828.151733,-215.411224L827.984924,-215.286301L827.845886,-215.131287L827.739624,-214.952103L827.670410,-214.755630L827.640869,-214.549438L819.657837,-2.028419L819.669556,-1.811550L819.723328,-1.601121L819.817200,-1.405243L819.947388,-1.231437L820.109009,-1.086369L820.295898,-0.975623L820.500793,-0.903437L820.715759,-0.872613L820.932617,-0.884339L821.143005,-0.938155L821.338928,-1.031975L821.512756,-1.162225L821.657837,-1.323845L821.768555,-1.510704L821.840698,-1.715537L821.871521,-1.930555z" fill="#CBCBCB" stroke="none" fill-opacity="1" />
				<path d="M829.563721,-213.880356L829.668579,-214.060364L829.736267,-214.257355L829.764221,-214.463776L829.751404,-214.671646L829.698242,-214.873062L829.606873,-215.060226L829.480652,-215.225952L829.324585,-215.363892L829.144592,-215.468689L828.947571,-215.536407L828.741089,-215.564346L828.533264,-215.551529L828.331909,-215.498352L828.144714,-215.406921L827.979004,-215.280731L827.841064,-215.124664L713.979187,-57.079838L713.871033,-56.894123L713.801208,-56.690865L713.772339,-56.477890L713.785583,-56.263405L713.840454,-56.055595L713.934753,-55.862469L714.065002,-55.691479L714.226013,-55.549191L714.411743,-55.441002L714.614990,-55.371181L714.827942,-55.342335L715.042419,-55.355579L715.250244,-55.410423L715.443359,-55.504745L715.614380,-55.634945L715.756653,-55.795998z" fill="#CBCBCB" stroke="none" fill-opacity="1" />
				<path d="M829.093628,-213.514603L829.278809,-213.609894L829.441895,-213.739532L829.576599,-213.898468L829.677673,-214.080597L829.741211,-214.278961L829.764832,-214.485931L829.747681,-214.693512L829.690308,-214.893768L829.595032,-215.078979L829.465332,-215.242020L829.306396,-215.376648L829.124268,-215.477707L828.925903,-215.541275L828.718994,-215.564926L828.511414,-215.547760L828.311157,-215.490387L721.235718,-173.270691L721.037231,-173.166870L720.864563,-173.024063L720.725464,-172.848480L720.625916,-172.647827L720.570190,-172.430832L720.560852,-172.206985L720.598267,-171.986115L720.680725,-171.777847L720.804688,-171.591263L720.964722,-171.434540L721.153931,-171.314529L721.363892,-171.236465L721.585571,-171.203751L721.809143,-171.217850L722.024902,-171.278122z" fill="#CBCBCB" stroke="none" fill-opacity="1" />
				<path d="M770.013672,-209.264969L769.889771,-209.432693L769.735413,-209.572968L769.556763,-209.680450L769.360535,-209.751053L769.154297,-209.781952L768.945984,-209.772064L768.743591,-209.721710L768.554932,-209.632828L768.387268,-209.508881L768.246948,-209.354599L768.139465,-209.175888L768.068909,-208.979645L768.037964,-208.773438L768.047852,-208.565109L768.098206,-208.362747L768.187073,-208.174103L877.281555,-25.030453L877.409973,-24.856562L877.569946,-24.711119L877.755249,-24.599689L877.958740,-24.526508L878.172485,-24.494465L878.388489,-24.504713L878.598267,-24.556915L878.793945,-24.649044L878.967834,-24.777582L879.113220,-24.937544L879.224670,-25.122818L879.297852,-25.326260L879.329895,-25.540091L879.319641,-25.756041L879.267395,-25.965860L879.175293,-26.161449z" fill="#CBCBCB" stroke="none" fill-opacity="1" />
				<path d="M770.163147,-208.672546L770.151917,-208.880783L770.100220,-209.082809L770.010132,-209.270889L769.885071,-209.437805L769.729919,-209.577057L769.550476,-209.683411L769.353821,-209.752701L769.147400,-209.782303L768.939148,-209.771027L768.737122,-209.719376L768.549072,-209.629288L768.382141,-209.504242L768.242859,-209.349045L768.136536,-209.169647L768.067200,-208.972946L768.037659,-208.766525L758.382935,-13.674692L758.394592,-13.458303L758.448303,-13.248324L758.541870,-13.052885L758.671875,-12.879476L758.833130,-12.734728L759.019531,-12.624239L759.223938,-12.552224L759.438477,-12.521507L759.654846,-12.533169L759.864807,-12.586846L760.060242,-12.680463L760.233704,-12.810413L760.378418,-12.971701L760.488953,-13.158132L760.560913,-13.362536L760.591675,-13.577031z" fill="#CBCBCB" stroke="none" fill-opacity="1" />
				<path d="M769.962769,-208.096680L770.067749,-208.276855L770.135498,-208.474091L770.163452,-208.680740L770.150635,-208.888901L770.097412,-209.090546L770.005859,-209.277893L769.879578,-209.443817L769.723267,-209.581909L769.543091,-209.686874L769.345825,-209.754623L769.139160,-209.782608L768.931030,-209.769745L768.729431,-209.716537L768.541992,-209.625015L768.376099,-209.498657L768.238037,-209.342407L700.233582,-116.385895L700.126648,-116.202332L700.057617,-116.001419L700.029114,-115.790916L700.042175,-115.578880L700.096375,-115.373505L700.189636,-115.182610L700.318298,-115.013603L700.477539,-114.872925L700.661072,-114.766022L700.862000,-114.696999L701.072510,-114.668480L701.284546,-114.681587L701.489929,-114.735794L701.680847,-114.829025L701.849792,-114.957733L701.990540,-115.116898z" fill="#CBCBCB" stroke="none" fill-opacity="1" />
			</g>
		</g>
	</g>
</svg>
